<?xml version="1.0" encoding="UTF-8" standalone="no"?>
<!-- Created with Inkscape (http://www.inkscape.org/) -->

<svg
   version="1.1"
   id="svg1"
   width="550.94666"
   height="151.84399"
   viewBox="0 0 550.94666 151.84399"
   xmlns="http://www.w3.org/2000/svg"
   xmlns:svg="http://www.w3.org/2000/svg">
  <defs
     id="defs1">
    <clipPath
       clipPathUnits="userSpaceOnUse"
       id="clipPath3">
      <path
         d="M 0,113.883 H 413.21 V 0 H 0 Z"
         transform="translate(-74.269002,-92.293002)"
         id="path3" />
    </clipPath>
    <clipPath
       clipPathUnits="userSpaceOnUse"
       id="clipPath5">
      <path
         d="M 0,113.883 H 413.21 V 0 H 0 Z"
         transform="translate(-100.12701,-71.190502)"
         id="path5" />
    </clipPath>
    <clipPath
       clipPathUnits="userSpaceOnUse"
       id="clipPath7">
      <path
         d="M 0,113.883 H 413.21 V 0 H 0 Z"
         transform="translate(-158.4565,-78.398002)"
         id="path7" />
    </clipPath>
    <clipPath
       clipPathUnits="userSpaceOnUse"
       id="clipPath9">
      <path
         d="M 0,113.883 H 413.21 V 0 H 0 Z"
         transform="translate(-222.50781,-75.797402)"
         id="path9" />
    </clipPath>
    <clipPath
       clipPathUnits="userSpaceOnUse"
       id="clipPath11">
      <path
         d="M 0,113.883 H 413.21 V 0 H 0 Z"
         transform="translate(-254.2354,-57.443902)"
         id="path11" />
    </clipPath>
    <clipPath
       clipPathUnits="userSpaceOnUse"
       id="clipPath13">
      <path
         d="M 0,113.883 H 413.21 V 0 H 0 Z"
         transform="translate(-295.32621,-56.477602)"
         id="path13" />
    </clipPath>
    <clipPath
       clipPathUnits="userSpaceOnUse"
       id="clipPath15">
      <path
         d="M 0,113.883 H 413.21 V 0 H 0 Z"
         transform="translate(-331.43851,-54.248602)"
         id="path15" />
    </clipPath>
    <clipPath
       clipPathUnits="userSpaceOnUse"
       id="clipPath17">
      <path
         d="M 0,113.883 H 413.21 V 0 H 0 Z"
         transform="translate(-393.03611,-68.886802)"
         id="path17" />
    </clipPath>
    <clipPath
       clipPathUnits="userSpaceOnUse"
       id="clipPath19">
      <path
         d="M 0,113.883 H 413.21 V 0 H 0 Z"
         transform="translate(-364.42871,-26.458103)"
         id="path19" />
    </clipPath>
  </defs>
  <g
     id="g1">
    <g
       id="group-MC0">
      <path
         id="path2"
         d="m 0,0 c -0.397,-3.17 -0.917,-6.514 -1.561,-10.031 -0.644,-3.518 -1.387,-7.035 -2.229,-10.552 -0.842,-3.518 -1.746,-6.96 -2.712,-10.328 -0.966,-3.369 -1.945,-6.49 -2.935,-9.363 4.31,0.346 8.668,0.755 13.078,1.226 4.408,0.47 9.015,1.052 13.821,1.747 0.297,0 0.52,-0.125 0.669,-0.372 0.148,-0.248 -0.075,-0.446 -0.669,-0.595 -4.904,-0.891 -9.598,-1.647 -14.081,-2.266 -4.484,-0.62 -8.954,-1.127 -13.412,-1.523 -0.645,-1.735 -1.276,-3.344 -1.895,-4.83 -0.62,-1.486 -1.202,-2.799 -1.746,-3.938 -0.1,-0.197 -0.249,-0.359 -0.446,-0.483 -0.199,-0.123 -0.397,-0.197 -0.594,-0.223 -0.199,-0.025 -0.361,0 -0.484,0.074 -0.124,0.075 -0.137,0.236 -0.037,0.483 0.396,0.991 0.855,2.229 1.375,3.716 0.52,1.486 1.052,3.145 1.597,4.978 -3.566,-0.248 -7.109,-0.446 -10.625,-0.595 -3.518,-0.148 -7.109,-0.222 -10.775,-0.222 -0.842,-2.378 -1.647,-4.57 -2.415,-6.576 -0.768,-2.007 -1.499,-3.727 -2.192,-5.165 -0.1,-0.197 -0.248,-0.358 -0.445,-0.483 -0.199,-0.123 -0.397,-0.197 -0.595,-0.222 -0.198,-0.025 -0.36,0 -0.483,0.074 -0.124,0.074 -0.137,0.236 -0.037,0.483 0.495,1.288 1.078,2.96 1.746,5.015 0.669,2.055 1.399,4.372 2.192,6.948 -2.923,0.049 -5.87,0.123 -8.842,0.223 -2.973,0.099 -6.068,0.247 -9.289,0.445 -0.297,0 -0.445,0.174 -0.445,0.521 0,0.346 0.148,0.52 0.445,0.52 3.32,-0.1 6.515,-0.162 9.586,-0.186 3.071,-0.025 6.093,-0.013 9.065,0.038 0.892,2.922 1.821,5.968 2.787,9.139 0.966,3.17 1.869,6.167 2.712,8.991 0.842,2.824 1.609,5.362 2.304,7.617 0.692,2.253 1.237,3.925 1.634,5.015 0.099,0.247 0.297,0.483 0.595,0.706 0.297,0.223 0.594,0.396 0.891,0.52 0.298,0.123 0.557,0.161 0.78,0.112 0.224,-0.05 0.31,-0.223 0.261,-0.52 -0.398,-1.14 -0.929,-2.85 -1.598,-5.128 -0.669,-2.279 -1.437,-4.866 -2.304,-7.764 -0.867,-2.898 -1.796,-5.971 -2.786,-9.215 -0.991,-3.245 -1.982,-6.378 -2.972,-9.399 3.615,0.098 7.182,0.21 10.7,0.334 3.516,0.123 7.059,0.309 10.626,0.557 0.842,2.824 1.72,5.919 2.637,9.288 0.916,3.369 1.795,6.811 2.638,10.329 0.842,3.517 1.61,6.997 2.304,10.44 0.693,3.442 1.238,6.65 1.635,9.623 0.048,0.297 0.21,0.557 0.483,0.78 0.271,0.223 0.568,0.383 0.891,0.483 0.322,0.099 0.606,0.123 0.855,0.075 C -0.05,0.47 0.049,0.297 0,0"
         style="fill:#231f20;fill-opacity:1;fill-rule:nonzero;stroke:none"
         transform="matrix(1.3333333,0,0,-1.3333333,99.025333,28.786667)"
         clip-path="url(#clipPath3)" />
      <path
         id="path4"
         d="m 0,0 c 0.495,0 0.916,-0.075 1.263,-0.223 0.346,-0.149 0.569,-0.496 0.669,-1.04 0.048,-0.298 -0.186,-0.632 -0.706,-1.004 -0.52,-0.371 -1.127,-0.458 -1.82,-0.259 -0.447,0.098 -0.781,0.321 -1.004,0.668 -0.222,0.346 -0.334,0.706 -0.334,1.078 0,0.371 0.112,0.705 0.334,1.003 0.223,0.297 0.557,0.445 1.004,0.445 0.197,0 0.371,-0.124 0.52,-0.371 C -0.025,0.197 0,0.099 0,0 m 11.072,-16.719 c 0.247,0.446 0.457,0.669 0.631,0.669 0.173,0 0.309,-0.124 0.409,-0.372 0.098,-0.248 0.148,-0.545 0.148,-0.891 0,-0.348 -0.074,-0.621 -0.222,-0.818 -1.784,-2.675 -3.691,-4.533 -5.722,-5.573 -2.032,-1.04 -3.988,-1.486 -5.87,-1.338 -1.883,0.149 -3.592,0.781 -5.127,1.896 -1.536,1.114 -2.725,2.463 -3.567,4.049 -0.594,1.139 -0.817,1.981 -0.669,2.527 0.149,0.197 0.42,0.371 0.817,0.52 0.396,0.148 0.718,-0.026 0.967,-0.52 0.891,-1.735 2.068,-3.147 3.529,-4.236 1.461,-1.09 3.034,-1.709 4.719,-1.858 1.683,-0.148 3.405,0.224 5.164,1.115 1.758,0.892 3.355,2.501 4.793,4.83"
         style="fill:#231f20;fill-opacity:1;fill-rule:nonzero;stroke:none"
         transform="matrix(1.3333333,0,0,-1.3333333,133.50267,56.923333)"
         clip-path="url(#clipPath5)" />
      <path
         id="path6"
         d="m 0,0 c -0.546,0.297 -1.387,0.197 -2.526,-0.297 -1.141,-0.496 -2.354,-1.152 -3.641,-1.97 -1.289,-0.817 -2.515,-1.709 -3.679,-2.674 -1.164,-0.966 -2.043,-1.772 -2.637,-2.415 -2.33,-2.675 -4.137,-5.326 -5.425,-7.951 -1.288,-2.626 -1.982,-5.252 -2.08,-7.877 1.04,0.744 1.993,1.436 2.861,2.081 0.866,0.643 1.683,1.288 2.452,1.932 0.767,0.643 1.523,1.312 2.266,2.006 0.743,0.693 1.535,1.486 2.378,2.378 1.287,1.386 2.588,2.922 3.901,4.607 1.312,1.683 2.476,3.244 3.492,4.681 1.015,1.437 1.784,2.675 2.304,3.716 C 0.186,-0.743 0.297,-0.148 0,0 m -28.311,-2.898 c -0.545,0.297 -1.275,0.309 -2.191,0.037 -0.918,-0.273 -1.871,-0.694 -2.861,-1.263 -0.992,-0.57 -1.958,-1.226 -2.898,-1.969 -0.942,-0.743 -1.709,-1.437 -2.304,-2.081 -1.189,-1.387 -2.34,-2.985 -3.455,-4.792 -1.115,-1.809 -1.945,-3.679 -2.489,-5.611 -0.546,-1.931 -0.695,-3.826 -0.446,-5.684 0.247,-1.858 1.139,-3.481 2.675,-4.867 1.189,-1.09 2.625,-1.685 4.31,-1.783 1.683,-0.1 3.455,0.123 5.312,0.668 1.858,0.545 3.727,1.338 5.611,2.378 1.881,1.04 3.615,2.155 5.201,3.344 -0.198,1.288 -0.198,2.588 0,3.901 0.198,1.312 0.494,2.489 0.892,3.53 0.297,0.94 0.73,1.969 1.3,3.083 0.569,1.115 1.214,2.216 1.932,3.307 0.718,1.089 1.461,2.129 2.229,3.121 0.767,0.99 1.523,1.832 2.266,2.526 0.495,0.495 1.251,1.176 2.267,2.044 1.015,0.866 2.142,1.683 3.381,2.452 1.237,0.767 2.526,1.423 3.864,1.969 1.337,0.544 2.625,0.792 3.863,0.743 1.189,-0.1 1.907,-0.496 2.156,-1.189 0.247,-0.695 0.247,-1.536 0,-2.527 -0.546,-2.031 -1.648,-4.186 -3.307,-6.464 -1.661,-2.279 -3.58,-4.521 -5.759,-6.725 -2.18,-2.205 -4.421,-4.248 -6.724,-6.13 -2.304,-1.883 -4.347,-3.444 -6.131,-4.682 0.346,-1.238 0.941,-2.229 1.784,-2.972 0.841,-0.742 1.77,-1.313 2.786,-1.709 1.015,-0.397 2.055,-0.657 3.121,-0.78 1.065,-0.124 2.043,-0.186 2.935,-0.186 2.229,-0.049 4.396,0.124 6.502,0.521 2.105,0.396 4.124,0.94 6.056,1.634 1.932,0.694 3.752,1.511 5.461,2.452 1.709,0.941 3.257,1.933 4.644,2.973 0.149,0.148 0.346,0.26 0.595,0.334 0.247,0.074 0.47,0.111 0.669,0.111 0.197,0 0.321,-0.062 0.371,-0.185 0.049,-0.125 -0.026,-0.31 -0.223,-0.558 -0.694,-0.843 -1.697,-1.746 -3.009,-2.712 -1.313,-0.966 -2.713,-1.796 -4.199,-2.489 -1.883,-0.843 -3.592,-1.536 -5.126,-2.081 -1.537,-0.545 -2.973,-0.979 -4.311,-1.3 -1.337,-0.323 -2.613,-0.546 -3.826,-0.669 -1.215,-0.124 -2.415,-0.185 -3.604,-0.185 -2.18,0.049 -4.298,0.396 -6.353,1.04 -2.056,0.643 -3.654,1.783 -4.793,3.418 -0.496,0.693 -0.867,1.386 -1.114,2.08 -1.586,-1.188 -3.493,-2.328 -5.722,-3.418 -2.229,-1.09 -4.484,-1.846 -6.762,-2.266 -2.279,-0.421 -4.458,-0.397 -6.539,0.074 -2.08,0.471 -3.789,1.647 -5.127,3.53 -0.644,0.94 -1.103,1.944 -1.375,3.009 -0.272,1.065 -0.408,2.105 -0.408,3.121 0,1.015 0.085,2.006 0.26,2.972 0.173,0.967 0.408,1.87 0.706,2.713 0.643,1.931 1.547,3.851 2.712,5.758 1.163,1.907 2.489,3.579 3.975,5.016 0.495,0.495 1.139,1.089 1.932,1.783 0.792,0.694 1.683,1.325 2.675,1.895 0.99,0.569 2.055,1.04 3.195,1.412 1.139,0.372 2.328,0.532 3.567,0.483 1.189,-0.1 1.994,-0.546 2.415,-1.338 0.42,-0.793 0.507,-1.684 0.26,-2.675 -0.199,-0.694 -0.632,-1.623 -1.3,-2.786 -0.669,-1.165 -1.536,-2.415 -2.601,-3.752 -1.066,-1.338 -2.292,-2.688 -3.678,-4.05 -1.388,-1.364 -2.874,-2.614 -4.458,-3.753 -0.844,-0.594 -1.561,-0.854 -2.155,-0.78 -0.595,0.074 -0.669,0.309 -0.223,0.706 1.981,1.684 3.777,3.442 5.387,5.275 1.609,1.833 2.935,3.53 3.975,5.091 1.04,1.56 1.758,2.885 2.155,3.975 0.396,1.089 0.42,1.733 0.074,1.932"
         style="fill:#231f20;fill-opacity:1;fill-rule:nonzero;stroke:none"
         transform="matrix(1.3333333,0,0,-1.3333333,211.27533,47.313333)"
         clip-path="url(#clipPath7)" />
      <path
         id="path8"
         d="m 0,0 c -0.101,-0.694 -0.199,-1.412 -0.298,-2.155 -0.099,-0.743 -0.148,-1.239 -0.148,-1.486 0.345,0.148 0.594,0.383 0.743,0.706 0.148,0.321 0.234,0.668 0.26,1.04 0.024,0.372 -0.026,0.73 -0.149,1.078 C 0.284,-0.472 0.148,-0.199 0,0 m -5.127,-8.025 c 0.148,-0.1 0.47,-0.199 0.966,-0.297 0.494,-0.1 0.817,-0.149 0.966,-0.149 0.049,0.297 0.086,0.544 0.111,0.743 0.024,0.197 0.062,0.396 0.111,0.595 -0.396,-0.199 -0.78,-0.361 -1.151,-0.484 -0.372,-0.124 -0.706,-0.259 -1.003,-0.408 m 20.359,-5.053 c 2.18,-0.843 3.753,-1.87 4.719,-3.084 0.966,-1.214 1.448,-2.464 1.448,-3.752 0,-1.337 -0.47,-2.638 -1.411,-3.901 -0.941,-1.264 -2.353,-2.391 -4.235,-3.381 -2.23,-1.189 -4.596,-2.168 -7.097,-2.935 -2.502,-0.769 -5.041,-1.4 -7.616,-1.895 -2.576,-0.496 -5.164,-0.868 -7.765,-1.115 -2.6,-0.248 -5.116,-0.471 -7.542,-0.669 H -21.4 c -2.477,0 -4.929,0.123 -7.357,0.372 -2.427,0.248 -4.78,0.669 -7.058,1.263 -2.279,0.595 -4.385,1.511 -6.317,2.75 -0.544,0.396 -0.631,0.78 -0.26,1.152 0.371,0.371 0.855,0.433 1.449,0.185 1.783,-0.843 3.728,-1.523 5.834,-2.043 2.105,-0.52 4.285,-0.917 6.538,-1.189 2.255,-0.273 4.533,-0.446 6.837,-0.52 2.302,-0.075 4.519,-0.063 6.65,0.037 4.655,0.149 9.325,0.669 14.006,1.56 4.682,0.892 9.151,2.229 13.413,4.013 2.377,0.99 4.023,2.043 4.94,3.158 0.917,1.114 1.301,2.216 1.153,3.306 -0.199,1.288 -0.806,2.403 -1.821,3.344 -1.016,0.941 -2.812,1.808 -5.387,2.601 -2.329,0.693 -4.484,1.237 -6.465,1.634 -1.982,0.396 -4.112,0.792 -6.39,1.189 -0.694,-3.269 -1.846,-6.39 -3.455,-9.362 -1.61,-2.972 -3.827,-5.4 -6.65,-7.282 -0.15,-0.1 -0.311,-0.124 -0.484,-0.074 -0.173,0.049 -0.309,0.16 -0.408,0.334 -0.1,0.173 -0.138,0.359 -0.112,0.557 0.024,0.198 0.16,0.396 0.409,0.595 2.23,1.733 4.024,3.938 5.387,6.613 1.362,2.675 2.513,5.672 3.456,8.991 -0.992,0.248 -1.921,0.47 -2.787,0.669 -0.867,0.197 -1.796,0.42 -2.786,0.668 -0.249,0.049 -0.398,0.198 -0.447,0.446 -0.05,0.248 -0.025,0.521 0.074,0.818 0.099,0.297 0.236,0.568 0.41,0.817 0.173,0.248 0.358,0.396 0.557,0.446 0.991,0.247 2.006,0.507 3.046,0.78 1.04,0.272 2.056,0.706 3.047,1.3 0.149,1.238 0.309,2.464 0.482,3.679 0.174,1.213 0.286,2.24 0.335,3.084 -1.04,0.594 -2.093,1.151 -3.158,1.671 -1.065,0.52 -2.093,0.978 -3.084,1.375 -4.112,1.684 -7.963,2.91 -11.554,3.678 -3.591,0.768 -7.293,1.251 -11.109,1.449 -0.395,0 -0.595,0.21 -0.595,0.632 0,0.42 0.2,0.631 0.595,0.631 2.23,0 4.496,-0.174 6.799,-0.52 2.304,-0.347 4.57,-0.817 6.799,-1.412 2.824,-0.694 5.61,-1.536 8.36,-2.526 2.749,-0.992 5.064,-2.106 6.947,-3.344 v 1.932 c 0,0.197 0.086,0.372 0.26,0.52 0.173,0.149 0.36,0.235 0.558,0.26 0.197,0.025 0.383,-0.025 0.557,-0.148 0.173,-0.125 0.26,-0.36 0.26,-0.706 V 2.452 C 0.717,1.758 1.287,0.966 1.783,0.074 2.277,-0.817 2.452,-1.784 2.303,-2.824 2.203,-3.518 1.919,-4.062 1.448,-4.458 0.978,-4.855 0.247,-5.376 -0.743,-6.019 c -0.05,-0.397 -0.137,-0.892 -0.26,-1.486 -0.125,-0.595 -0.212,-1.04 -0.261,-1.338 3.27,-0.594 6.18,-1.201 8.732,-1.82 2.551,-0.62 5.138,-1.425 7.764,-2.415"
         style="fill:#231f20;fill-opacity:1;fill-rule:nonzero;stroke:none"
         transform="matrix(1.3333333,0,0,-1.3333333,296.67707,50.7808)"
         clip-path="url(#clipPath9)" />
      <path
         id="path10"
         d="m 0,0 c -0.743,-0.397 -1.363,-0.892 -1.857,-1.486 0.693,-0.347 1.412,-0.509 2.155,-0.483 0.743,0.024 1.237,0.284 1.485,0.78 C 2.18,-0.645 2.204,-0.162 1.857,0.26 1.511,0.68 0.892,0.594 0,0 m 26.899,-2.75 c 0.247,0.298 0.409,0.235 0.483,-0.186 0.074,-0.421 -0.087,-0.755 -0.483,-1.002 -2.824,-1.833 -5.672,-3.381 -8.545,-4.645 -2.874,-1.263 -5.301,-2.242 -7.282,-2.935 -1.041,-0.347 -2.255,-0.681 -3.641,-1.003 -1.388,-0.323 -2.786,-0.508 -4.199,-0.557 -1.412,-0.05 -2.761,0.099 -4.049,0.446 -1.288,0.346 -2.378,1.04 -3.27,2.08 -0.892,1.041 -1.374,2.254 -1.448,3.641 -0.074,1.387 0.16,2.737 0.705,4.05 0.545,1.312 1.325,2.452 2.341,3.418 1.014,0.966 2.192,1.524 3.53,1.672 C 1.933,2.278 2.649,2.204 3.195,2.006 3.74,1.808 4.148,1.547 4.422,1.226 4.693,0.903 4.83,0.532 4.83,0.111 4.83,-0.31 4.756,-0.694 4.607,-1.041 4.358,-1.536 3.976,-1.982 3.455,-2.378 2.936,-2.775 2.341,-3.084 1.672,-3.307 1.003,-3.53 0.285,-3.617 -0.482,-3.567 c -0.769,0.049 -1.499,0.297 -2.193,0.743 -0.397,-0.743 -0.657,-1.511 -0.78,-2.303 -0.124,-0.793 -0.013,-1.537 0.335,-2.229 0.346,-0.793 0.854,-1.425 1.522,-1.895 0.669,-0.472 1.412,-0.831 2.23,-1.078 0.817,-0.248 1.672,-0.384 2.563,-0.408 0.892,-0.026 1.784,0.037 2.675,0.185 3.568,0.545 7.146,1.548 10.737,3.01 3.591,1.46 7.023,3.058 10.292,4.792"
         style="fill:#231f20;fill-opacity:1;fill-rule:nonzero;stroke:none"
         transform="matrix(1.3333333,0,0,-1.3333333,338.98053,75.252133)"
         clip-path="url(#clipPath11)" />
      <path
         id="path12"
         d="m 0,0 c 0.099,-0.198 0.099,-0.409 0,-0.631 -0.1,-0.223 -0.26,-0.409 -0.483,-0.558 -0.223,-0.148 -0.471,-0.26 -0.743,-0.334 -0.273,-0.075 -0.483,-0.038 -0.631,0.111 -0.695,0.545 -1.524,0.929 -2.49,1.152 -0.965,0.223 -2.118,0.186 -3.455,-0.112 -1.289,-0.296 -2.502,-0.83 -3.641,-1.597 -1.14,-0.769 -2.106,-1.586 -2.898,-2.452 -0.793,-0.868 -1.326,-1.661 -1.597,-2.378 -0.274,-0.719 -0.162,-1.152 0.334,-1.3 0.693,-0.249 1.51,-0.31 2.452,-0.186 0.94,0.123 1.869,0.346 2.787,0.669 0.916,0.322 1.733,0.68 2.452,1.077 0.717,0.396 1.226,0.768 1.522,1.115 0.595,0.693 1.14,1.04 1.635,1.04 0.495,0 0.792,-0.149 0.892,-0.446 0.098,-0.694 0.186,-1.375 0.26,-2.043 0.075,-0.669 0.112,-1.276 0.112,-1.821 0,-0.248 -0.198,-0.52 -0.595,-0.817 -0.396,-0.297 -0.793,-0.223 -1.188,0.223 -0.249,0.247 -0.422,0.569 -0.521,0.966 -0.1,0.396 -0.148,0.718 -0.148,0.966 -0.297,-0.297 -0.83,-0.632 -1.598,-1.003 -0.769,-0.372 -1.647,-0.695 -2.638,-0.966 -0.992,-0.273 -2.007,-0.496 -3.047,-0.669 -1.04,-0.174 -1.957,-0.212 -2.749,-0.111 -0.694,0.098 -1.289,0.308 -1.783,0.631 -0.496,0.322 -0.719,0.755 -0.669,1.301 0.049,0.891 0.383,1.869 1.003,2.935 0.619,1.064 1.424,2.105 2.415,3.12 0.99,1.015 2.142,1.907 3.455,2.676 1.313,0.767 2.712,1.3 4.199,1.597 1.733,0.346 3.169,0.371 4.309,0.074 C -1.907,1.932 -0.892,1.189 0,0"
         style="fill:#231f20;fill-opacity:1;fill-rule:nonzero;stroke:none"
         transform="matrix(1.3333333,0,0,-1.3333333,393.76827,76.540533)"
         clip-path="url(#clipPath13)" />
      <path
         id="path14"
         d="M 0,0 C -0.546,-0.992 -1.165,-1.945 -1.858,-2.861 -2.553,-3.778 -3.283,-4.57 -4.05,-5.239 -4.818,-5.907 -5.573,-6.44 -6.316,-6.836 -7.06,-7.233 -7.729,-7.431 -8.322,-7.431 c -0.943,0 -1.699,0.173 -2.267,0.52 -0.57,0.347 -1.003,0.805 -1.301,1.375 -0.297,0.569 -0.445,1.189 -0.445,1.858 0,0.669 0.074,1.324 0.223,1.969 -1.141,-1.189 -2.465,-2.465 -3.976,-3.827 -1.512,-1.363 -3.084,-2.527 -4.719,-3.492 -1.633,-0.966 -3.268,-1.574 -4.903,-1.821 -1.635,-0.248 -3.146,0.123 -4.533,1.115 -0.793,0.594 -1.313,1.399 -1.561,2.415 -0.248,1.014 -0.297,2.105 -0.148,3.269 0.148,1.164 0.483,2.315 1.003,3.455 0.52,1.139 1.152,2.156 1.895,3.047 0.544,0.495 1.102,0.743 1.672,0.743 0.569,0 0.655,-0.273 0.26,-0.817 -0.546,-0.743 -1.077,-1.685 -1.598,-2.824 -0.52,-1.14 -0.854,-2.266 -1.003,-3.381 -0.148,-1.114 -0.037,-2.117 0.334,-3.009 0.372,-0.892 1.177,-1.486 2.415,-1.784 1.288,-0.297 2.638,-0.099 4.05,0.595 1.412,0.693 2.811,1.597 4.198,2.712 1.387,1.115 2.7,2.253 3.939,3.418 1.237,1.164 2.351,2.068 3.344,2.712 0.247,0 0.556,-0.111 0.928,-0.334 0.371,-0.223 0.483,-0.533 0.334,-0.929 -0.198,-0.644 -0.285,-1.263 -0.259,-1.858 0.024,-0.594 0.148,-1.114 0.371,-1.56 0.223,-0.446 0.582,-0.769 1.078,-0.966 0.494,-0.198 1.138,-0.198 1.931,0 0.495,0.049 1.003,0.26 1.524,0.632 0.519,0.371 1.027,0.817 1.523,1.337 0.494,0.52 0.941,1.065 1.337,1.635 0.397,0.569 0.743,1.101 1.041,1.598 0.346,0.345 0.754,0.482 1.226,0.408 C 0.062,0.706 0.197,0.446 0,0"
         style="fill:#231f20;fill-opacity:1;fill-rule:nonzero;stroke:none"
         transform="matrix(1.3333333,0,0,-1.3333333,441.918,79.512533)"
         clip-path="url(#clipPath15)" />
      <path
         id="path16"
         d="m 0,0 c 0.248,0 0.372,-0.174 0.372,-0.52 0,-0.347 -0.124,-0.52 -0.372,-0.52 -7.43,-0.496 -14.799,-1.09 -22.105,-1.784 -7.308,-0.694 -14.578,-1.411 -21.809,-2.155 -2.726,-0.248 -5.239,-0.482 -7.542,-0.706 -2.304,-0.222 -4.818,-0.458 -7.542,-0.705 -0.149,-0.496 -0.311,-0.992 -0.483,-1.486 -0.174,-0.496 -0.361,-1.054 -0.558,-1.672 -0.198,-0.62 -0.434,-1.326 -0.706,-2.118 -0.273,-0.793 -0.557,-1.759 -0.855,-2.898 -0.198,-0.793 -0.433,-1.722 -0.705,-2.787 -0.273,-1.065 -0.446,-2.093 -0.52,-3.083 -0.074,-0.992 0.024,-1.871 0.297,-2.638 0.271,-0.769 0.829,-1.276 1.672,-1.523 0.396,-0.1 0.866,-0.112 1.412,-0.037 0.545,0.074 1.101,0.21 1.672,0.408 0.569,0.198 1.138,0.433 1.709,0.706 0.569,0.272 1.051,0.532 1.449,0.78 1.98,1.238 4.012,2.65 6.093,4.236 2.081,1.585 3.987,3.121 5.721,4.607 0.494,0.247 0.755,0.197 0.78,-0.149 0.025,-0.347 -0.086,-0.644 -0.334,-0.892 -0.496,-0.495 -1.078,-1.09 -1.747,-1.783 -0.668,-0.694 -1.374,-1.4 -2.117,-2.117 -0.743,-0.719 -1.499,-1.413 -2.266,-2.081 -0.769,-0.669 -1.45,-1.177 -2.043,-1.523 -0.595,-0.496 -1.438,-1.103 -2.527,-1.821 -1.091,-0.719 -2.242,-1.35 -3.455,-1.895 -1.215,-0.545 -2.428,-0.891 -3.641,-1.04 -1.214,-0.149 -2.243,0.074 -3.084,0.669 -0.743,0.594 -1.251,1.375 -1.523,2.34 -0.273,0.966 -0.385,1.994 -0.335,3.084 0.049,1.089 0.186,2.179 0.409,3.269 0.223,1.09 0.483,2.081 0.781,2.973 0.297,1.089 0.556,2.03 0.78,2.823 0.223,0.792 0.445,1.498 0.668,2.118 0.224,0.619 0.433,1.189 0.632,1.709 0.197,0.521 0.372,1.052 0.52,1.598 -1.982,-0.149 -3.741,-0.273 -5.276,-0.372 -1.534,-0.099 -2.972,-0.161 -4.31,-0.185 -1.337,-0.026 -2.637,-0.013 -3.9,0.037 -1.264,0.049 -2.639,0.148 -4.124,0.297 -0.792,0.048 -1.164,0.223 -1.115,0.52 0.049,0.297 0.422,0.446 1.115,0.446 1.536,-0.05 2.997,-0.063 4.384,-0.037 1.387,0.024 2.786,0.074 4.198,0.148 1.412,0.074 2.885,0.186 4.421,0.335 1.535,0.148 3.22,0.297 5.053,0.445 0.248,0.842 0.47,1.61 0.668,2.304 0.198,0.693 0.42,1.312 0.669,1.858 0.049,0.297 0.223,0.568 0.521,0.817 0.297,0.248 0.594,0.42 0.892,0.52 0.296,0.099 0.556,0.112 0.78,0.037 0.222,-0.074 0.308,-0.286 0.26,-0.631 -0.1,-0.695 -0.311,-1.401 -0.632,-2.118 -0.323,-0.719 -0.657,-1.623 -1.003,-2.712 2.922,0.247 5.597,0.483 8.025,0.706 2.426,0.222 5.003,0.457 7.728,0.706 7.231,0.742 14.389,1.51 21.474,2.303 C -14.391,-0.397 -7.232,0 0,0"
         style="fill:#231f20;fill-opacity:1;fill-rule:nonzero;stroke:none"
         transform="matrix(1.3333333,0,0,-1.3333333,524.04813,59.994933)"
         clip-path="url(#clipPath17)" />
      <path
         id="path18"
         d="m 0,0 c 1.386,0.892 2.601,1.932 3.641,3.121 1.04,1.189 1.881,2.489 2.526,3.901 0.644,1.412 1.126,2.874 1.449,4.384 0.321,1.511 0.483,3.035 0.483,4.57 0,0.99 -0.063,1.969 -0.186,2.935 -0.124,0.966 -0.309,1.895 -0.557,2.786 -3.22,-1.239 -6.119,-2.637 -8.694,-4.198 -2.576,-1.561 -4.904,-3.355 -6.984,-5.387 -0.447,-0.446 -0.929,-0.99 -1.449,-1.635 -0.521,-0.643 -1.003,-1.349 -1.45,-2.118 -0.445,-0.767 -0.817,-1.571 -1.114,-2.415 -0.298,-0.841 -0.446,-1.659 -0.446,-2.452 0,-0.94 0.21,-1.746 0.632,-2.414 0.42,-0.669 0.965,-1.214 1.634,-1.635 0.669,-0.421 1.4,-0.731 2.193,-0.929 0.791,-0.198 1.585,-0.297 2.378,-0.297 2.178,0 4.161,0.594 5.944,1.783 m 26.378,28.608 c 0.248,0 0.372,-0.1 0.372,-0.297 0,-0.149 -0.063,-0.335 -0.186,-0.558 C 26.439,27.53 26.254,27.369 26.007,27.271 22.886,26.527 19.938,25.809 17.164,25.115 14.39,24.421 11.74,23.529 9.214,22.44 9.659,20.806 9.883,19.022 9.883,17.09 9.883,14.813 9.548,12.435 8.879,9.957 8.211,7.48 7.17,5.202 5.759,3.121 4.347,1.041 2.526,-0.68 0.297,-2.043 c -2.23,-1.362 -4.904,-2.044 -8.026,-2.044 -2.278,0 -4.186,0.57 -5.72,1.709 -1.536,1.14 -2.304,3.047 -2.304,5.722 0,1.833 0.445,3.567 1.337,5.201 0.892,1.635 2.019,3.121 3.381,4.458 1.362,1.338 2.861,2.551 4.496,3.642 1.635,1.088 3.17,2.006 4.606,2.749 0.545,0.297 1.177,0.619 1.896,0.966 0.717,0.346 1.448,0.706 2.191,1.077 0.743,0.372 1.487,0.73 2.23,1.078 0.743,0.346 1.412,0.643 2.006,0.891 -0.594,1.288 -1.337,2.241 -2.229,2.861 -0.891,0.619 -1.908,0.929 -3.047,0.929 -1.536,0 -2.985,-0.483 -4.346,-1.449 -1.364,-0.966 -2.712,-2.043 -4.05,-3.232 -1.338,-1.189 -2.675,-2.266 -4.013,-3.233 -1.338,-0.966 -2.749,-1.449 -4.235,-1.449 -0.248,0.049 -0.472,0.149 -0.669,0.298 -0.446,0.247 -0.669,0.791 -0.669,1.635 0,0.594 0.061,1.423 0.186,2.489 0.123,1.064 0.297,2.118 0.52,3.158 0.224,1.04 0.483,1.943 0.78,2.712 0.298,0.767 0.619,1.151 0.966,1.151 0.248,0 0.532,-0.087 0.854,-0.259 0.323,-0.175 0.434,-0.459 0.335,-0.855 -0.199,-0.992 -0.508,-2.242 -0.928,-3.752 -0.422,-1.512 -0.632,-3.06 -0.632,-4.644 1.386,0.643 2.699,1.497 3.938,2.563 1.238,1.065 2.49,2.118 3.752,3.158 1.264,1.04 2.588,1.932 3.976,2.675 1.386,0.743 2.922,1.114 4.606,1.114 1.585,0 2.973,-0.52 4.161,-1.56 1.19,-1.04 2.106,-2.205 2.75,-3.492 1.487,0.594 2.922,1.114 4.31,1.56 1.386,0.446 2.798,0.829 4.235,1.152 1.437,0.321 2.91,0.619 4.421,0.892 1.511,0.271 3.109,0.531 4.793,0.78 z"
         style="fill:#231f20;fill-opacity:1;fill-rule:nonzero;stroke:none"
         transform="matrix(1.3333333,0,0,-1.3333333,485.90493,116.56653)"
         clip-path="url(#clipPath19)" />
    </g>
  </g>
</svg>
